# xmcd
#
# Track frame offsets:
#        150
#        18175
#        41900
#        59312
#
# Disc length: 1444 seconds
#
# Revision: 0
# Processed by: cddbd v1.5.1PL0 Copyright (c) Steve Scherf et al.
# Submitted via: ExactAudioCopy v0.95b3
#
DISCID=2c05a204
DTITLE=C and C Music Factory - Keep It Comin' Dance Remixes
DYEAR=1992
DGENRE=Dance
TTITLE0=Keep It Comin' (The Radio Mix)
TTITLE1=Keep It Comin' (C and C Club Mix)
TTITLE2=Keep It Comin' (Straight Outta Da Bronx Mix)
TTITLE3=Keep It Comin' (The Cole and Clivill'es House Anthem)
EXTD=
EXTT0=
EXTT1=
EXTT2=
EXTT3=
PLAYORDER=
